<?xml version="1.0" encoding="UTF-8" standalone="no"?>
<!-- Created with Inkscape (http://www.inkscape.org/) -->

<svg
   width="783.78986mm"
   height="779.59686mm"
   viewBox="0 0 783.78986 779.59686"
   version="1.1"
   id="svg1"
   xml:space="preserve"
   xmlns:xlink="http://www.w3.org/1999/xlink"
   xmlns="http://www.w3.org/2000/svg"
   xmlns:svg="http://www.w3.org/2000/svg"><defs
     id="defs1"><linearGradient
       id="linearGradient21"><stop
         style="stop-color:#a3e635;stop-opacity:1;"
         offset="0"
         id="stop20" /><stop
         style="stop-color:#1abc4b;stop-opacity:1;"
         offset="1"
         id="stop21" /></linearGradient><filter
       style="color-interpolation-filters:sRGB"
       id="filter89"
       x="-0.26666807"
       y="-0.37141604"
       width="1.7000037"
       height="1.5999798"><feFlood
         result="flood"
         in="SourceGraphic"
         flood-opacity="0.105882"
         flood-color="rgb(32,32,32)"
         id="feFlood88" /><feGaussianBlur
         result="blur"
         in="SourceGraphic"
         stdDeviation="2.000000"
         id="feGaussianBlur88" /><feOffset
         result="offset"
         in="blur"
         dx="3.000000"
         dy="-3.000000"
         id="feOffset88" /><feComposite
         result="comp1"
         operator="in"
         in="flood"
         in2="offset"
         id="feComposite88" /><feComposite
         result="comp2"
         operator="over"
         in="SourceGraphic"
         in2="comp1"
         id="feComposite89" /></filter><filter
       style="color-interpolation-filters:sRGB"
       id="filter121"
       x="-0.073402419"
       y="-0.07327827"
       width="1.1468048"
       height="1.1465565"><feFlood
         result="flood"
         in="SourceGraphic"
         flood-opacity="0.207843"
         flood-color="rgb(32,32,32)"
         id="feFlood120" /><feGaussianBlur
         result="blur"
         in="SourceGraphic"
         stdDeviation="2.000000"
         id="feGaussianBlur120" /><feOffset
         result="offset"
         in="blur"
         dx="0.000000"
         dy="-0.000000"
         id="feOffset120" /><feComposite
         result="comp1"
         operator="out"
         in="flood"
         in2="offset"
         id="feComposite120" /><feComposite
         result="comp2"
         operator="atop"
         in="comp1"
         in2="SourceGraphic"
         id="feComposite121" /></filter><linearGradient
       xlink:href="#linearGradient21"
       id="linearGradient124"
       gradientUnits="userSpaceOnUse"
       gradientTransform="matrix(1.1197367,0,0,1.1197367,70.594726,141.85504)"
       x1="293.99277"
       y1="769.85278"
       x2="352.39297"
       y2="769.85278" /></defs><g
     id="layer2"
     style="display:inline;opacity:1"
     transform="translate(100.46117,-1342.8694)"><g
       id="g124"
       style="display:inline;opacity:1"
       transform="translate(-220.56621,1220.6678)"><path
         id="path122"
         style="fill:url(#linearGradient124);fill-opacity:1;stroke:none;stroke-width:5.99389;stroke-dasharray:none;filter:url(#filter121)"
         d="m 432.48565,971.13567 a 32.696337,31.754147 0 0 0 -32.69647,31.75413 32.696337,31.754147 0 0 0 5.30945,17.3217 l -4.85492,16.4279 16.53183,-5.9936 a 32.696337,31.754147 0 0 0 15.71011,3.9982 32.696337,31.754147 0 0 0 32.69647,-31.7542 32.696337,31.754147 0 0 0 -32.69647,-31.75413 z"
         transform="matrix(10.451516,0,0,10.380269,-4008.1307,-9908.6226)" /><g
         style="fill:#fafaf9;fill-opacity:1;filter:url(#filter89)"
         id="g123"
         transform="matrix(15.972432,0,0,15.815471,302.93804,328.98293)"><path
           fill-rule="evenodd"
           d="m 14.615,1.595 a 0.75,0.75 0 0 1 0.359,0.852 L 12.982,9.75 h 7.268 a 0.75,0.75 0 0 1 0.548,1.262 l -10.5,11.25 A 0.75,0.75 0 0 1 9.026,21.552 L 11.018,14.25 H 3.75 A 0.75,0.75 0 0 1 3.202,12.988 l 10.5,-11.25 a 0.75,0.75 0 0 1 0.913,-0.143 z"
           clip-rule="evenodd"
           id="path123"
           style="fill:#fafaf9;fill-opacity:1" /></g></g></g></svg>
