<?xml version="1.0" encoding="UTF-8" standalone="no"?>
<!-- Created with Inkscape (http://www.inkscape.org/) -->

<svg
   width="36.671471mm"
   height="32.087543mm"
   viewBox="0 0 36.671471 32.087543"
   version="1.1"
   id="svg1"
   xml:space="preserve"
   xmlns="http://www.w3.org/2000/svg"
   xmlns:svg="http://www.w3.org/2000/svg"><defs
     id="defs1"><style
       id="style1">.cls-1{fill:#4285f4;}.cls-1,.cls-2{fill-rule:evenodd;}.cls-2{fill:#669df6;}</style></defs><g
     id="layer1"
     transform="translate(-34.792205,-198.89423)"><g
       id="g4"
       transform="matrix(1.8335735,0,0,1.8335735,31.12506,192.93511)"><polygon
         class="cls-1"
         points="14.36,8.25 15.09,9.5 12.63,9.5 12.63,12 14.89,12 15.94,10.13 18.75,10.13 19.47,11.38 16.67,11.38 15.62,13.25 12.63,13.25 12.63,17.63 16.03,17.63 15.31,18.88 12.63,18.88 12.63,20.75 16.9,20.75 20.18,15.13 18.09,15.13 17.36,16.38 14.5,16.38 14.5,15.13 16.64,15.13 17.38,13.88 20.91,13.88 22,12 19.82,8.25 16.75,8.25 15.69,6.39 14.5,6.39 14.5,5.13 16.44,5.13 17.5,7 19.09,7 16.9,3.25 12.63,3.25 12.63,8.25 "
         id="polygon3"
         style="fill:#14b8a6;fill-opacity:1" /><polygon
         class="cls-2"
         points="9.64,8.25 8.91,9.5 11.38,9.5 11.38,12 9.11,12 8.06,10.13 5.25,10.13 4.53,11.38 7.33,11.38 8.38,13.25 11.38,13.25 11.38,17.63 7.97,17.63 8.69,18.88 11.38,18.88 11.38,20.75 7.1,20.75 3.82,15.13 5.91,15.13 6.64,16.38 9.5,16.38 9.5,15.13 7.36,15.13 6.62,13.88 3.09,13.88 2,12 4.18,8.25 7.25,8.25 8.31,6.39 9.5,6.39 9.5,5.13 7.56,5.13 6.5,7 4.91,7 7.1,3.25 11.38,3.25 11.38,8.25 "
         id="polygon4"
         style="opacity:0.49;fill:#14b8a6;fill-opacity:0.501961" /><polygon
         class="cls-1"
         points="14.36,8.25 15.09,9.5 12.63,9.5 12.63,12 14.89,12 15.94,10.13 18.75,10.13 19.47,11.38 16.67,11.38 15.62,13.25 12.63,13.25 12.63,17.63 16.03,17.63 15.31,18.88 12.63,18.88 12.63,20.75 16.9,20.75 20.18,15.13 18.09,15.13 17.36,16.38 14.5,16.38 14.5,15.13 16.64,15.13 17.38,13.88 20.91,13.88 22,12 19.82,8.25 16.75,8.25 15.69,6.39 14.5,6.39 14.5,5.13 16.44,5.13 17.5,7 19.09,7 16.9,3.25 12.63,3.25 12.63,8.25 "
         id="polygon9"
         style="fill:#14b8a6;fill-opacity:1" /><polygon
         class="cls-2"
         points="9.64,8.25 8.91,9.5 11.38,9.5 11.38,12 9.11,12 8.06,10.13 5.25,10.13 4.53,11.38 7.33,11.38 8.38,13.25 11.38,13.25 11.38,17.63 7.97,17.63 8.69,18.88 11.38,18.88 11.38,20.75 7.1,20.75 3.82,15.13 5.91,15.13 6.64,16.38 9.5,16.38 9.5,15.13 7.36,15.13 6.62,13.88 3.09,13.88 2,12 4.18,8.25 7.25,8.25 8.31,6.39 9.5,6.39 9.5,5.13 7.56,5.13 6.5,7 4.91,7 7.1,3.25 11.38,3.25 11.38,8.25 "
         id="polygon10"
         style="opacity:1;fill:#8adcd3;fill-opacity:0.501961" /></g></g></svg>
