<?xml version="1.0" encoding="UTF-8" standalone="no"?>
<!-- Created with Inkscape (http://www.inkscape.org/) -->

<svg
   width="466.53586mm"
   height="136.12448mm"
   viewBox="0 0 466.53586 136.12448"
   version="1.1"
   id="svg1"
   xml:space="preserve"
   xmlns="http://www.w3.org/2000/svg"
   xmlns:svg="http://www.w3.org/2000/svg"><defs
     id="defs1" /><g
     id="layer1"
     style="display:inline;opacity:1"
     transform="translate(-4120.5529,-2939.3121)"><g
       id="text38"
       style="font-size:176.785px;font-family:Orbitron;-inkscape-font-specification:Orbitron;fill:#1abc4b;stroke-width:441.962"
       aria-label="IGNia"><path
         style="font-weight:500;-inkscape-font-specification:'Orbitron Medium'"
         d="m 4120.5527,3075.4368 v -127.2852 h 19.0928 v 127.2852 z m 61.3445,0 q -6.3642,0 -11.6678,-3.0054 -5.1267,-3.1821 -8.3089,-8.3089 -3.0053,-5.3035 -3.0053,-11.6678 v -81.3211 q 0,-6.3642 3.0053,-11.491 3.1822,-5.3036 8.3089,-8.3089 5.3036,-3.1821 11.6678,-3.1821 h 81.1443 q 6.3643,0 11.6679,3.1821 5.3035,3.0053 8.3089,8.3089 3.1821,5.1268 3.1821,11.491 v 7.6018 h -19.2696 v -7.0714 q 0,-1.7679 -1.2375,-3.0054 -1.2375,-1.4143 -3.0053,-1.4143 h -80.2604 q -1.7679,0 -3.1821,1.4143 -1.2375,1.2375 -1.2375,3.0054 v 80.2604 q 0,1.7678 1.2375,3.1821 1.4142,1.2375 3.1821,1.2375 h 80.2604 q 1.7678,0 3.0053,-1.2375 1.2375,-1.4143 1.2375,-3.1821 v -27.0481 h -30.0534 v -19.2696 h 49.323 v 46.848 q 0,6.3643 -3.1821,11.6678 -3.0054,5.1268 -8.3089,8.3089 -5.3036,3.0054 -11.6679,3.0054 z m 123.7495,0 v -127.2852 h 22.8053 l 85.2104,101.4746 v -101.4746 h 19.2695 v 127.2852 h -22.8052 l -85.3872,-101.6514 v 101.6514 z"
         id="path39" /><path
         style="fill:#a3e635"
         d="m 4452.0248,3075.4368 v 0 -102.5353 h 14.4964 v 102.5353 z m 0,-121.6281 v 0 -14.4964 h 14.4964 v 14.4964 z m 51.9749,121.6281 q -5.8339,0 -10.7839,-2.8286 -4.7732,-3.0053 -7.7786,-7.7785 -2.8285,-4.95 -2.8285,-10.7839 v -37.1249 h 89.8068 v -22.6284 q 0,-2.8286 -2.1215,-4.7732 -1.9446,-2.1215 -4.7732,-2.1215 h -82.9121 v -14.4963 h 82.9121 q 6.0107,0 10.7839,3.0053 4.95,2.8286 7.7786,7.7786 3.0053,4.7731 3.0053,10.6071 v 81.1443 z m 0,-14.4964 h 68.4158 v -29.5231 h -75.3104 v 22.6285 q 0,2.8285 1.9446,4.95 2.1214,1.9446 4.95,1.9446 z"
         id="path42" /></g></g></svg>
