<?xml version="1.0" encoding="UTF-8" standalone="no"?>
<!-- Created with Inkscape (http://www.inkscape.org/) -->

<svg
   width="648.12036mm"
   height="907.14984mm"
   viewBox="0 0 648.12037 907.14983"
   version="1.1"
   id="svg1"
   xml:space="preserve"
   xmlns:xlink="http://www.w3.org/1999/xlink"
   xmlns="http://www.w3.org/2000/svg"
   xmlns:svg="http://www.w3.org/2000/svg"><defs
     id="defs1"><linearGradient
       id="linearGradient39"><stop
         style="stop-color:#a3e635;stop-opacity:1;"
         offset="0"
         id="stop39" /><stop
         style="stop-color:#1abc4b;stop-opacity:1;"
         offset="1"
         id="stop40" /></linearGradient><filter
       style="color-interpolation-filters:sRGB"
       id="filter147"
       x="-0.063007795"
       y="-0.043452874"
       width="1.1260156"
       height="1.0869057"><feFlood
         result="flood"
         in="SourceGraphic"
         flood-opacity="0.30000000000000004"
         flood-color="rgb(0,0,0)"
         id="feFlood146" /><feGaussianBlur
         result="blur"
         in="SourceGraphic"
         stdDeviation="12.000000"
         id="feGaussianBlur146" /><feOffset
         result="offset"
         in="blur"
         dx="0.000000"
         dy="0.000000"
         id="feOffset146" /><feComposite
         result="comp1"
         operator="out"
         in="flood"
         in2="offset"
         id="feComposite146" /><feComposite
         result="comp2"
         operator="atop"
         in="comp1"
         in2="SourceGraphic"
         id="feComposite147" /></filter><filter
       style="color-interpolation-filters:sRGB"
       id="filter160"
       x="-0.33092972"
       y="-0.19886247"
       width="1.6618594"
       height="1.3977249"><feFlood
         result="flood"
         in="SourceGraphic"
         flood-opacity="0.25"
         flood-color="rgb(0,0,0)"
         id="feFlood159" /><feGaussianBlur
         result="blur"
         in="SourceGraphic"
         stdDeviation="8.000000"
         id="feGaussianBlur159" /><feOffset
         result="offset"
         in="blur"
         dx="0.000000"
         dy="0.000000"
         id="feOffset159" /><feComposite
         result="comp1"
         operator="in"
         in="flood"
         in2="offset"
         id="feComposite159" /><feComposite
         result="comp2"
         operator="over"
         in="SourceGraphic"
         in2="comp1"
         id="feComposite160" /></filter><linearGradient
       xlink:href="#linearGradient39"
       id="linearGradient25"
       gradientUnits="userSpaceOnUse"
       gradientTransform="translate(1184.9034,-1226.479)"
       x1="1910.6826"
       y1="2605.3718"
       x2="2233.8918"
       y2="2928.5813" /></defs><g
     id="layer1"
     style="display:inline;opacity:1"
     transform="translate(-2796.5326,-2275.8377)"><g
       id="g25"
       transform="matrix(1.2592534,0,0,1.2592534,-981.0354,789.5359)"><path
         id="path23"
         style="display:inline;fill:url(#linearGradient25);stroke-width:0.855988;filter:url(#filter147)"
         d="m 3261.2305,1209.1041 -4.9144,10.8133 c -5.7305,12.6079 -20.694,32.2979 -39.3025,51.7183 -31.2789,32.6433 -42.4136,57.7863 -42.4936,95.9497 -0.055,26.2045 6.6391,44.8375 20.806,57.9148 6.6645,6.1518 4.7122,6.2961 -6.8481,0.5064 -19.2334,-9.6327 -40.3515,-29.9013 -48.9878,-47.0172 -2.1003,-4.1627 -5.189,-13.3087 -6.8636,-20.3244 l -3.0448,-12.7553 -8.1711,15.0565 c -14.4982,26.7159 -14.7527,28.0292 -14.2249,73.4249 0.4121,35.4306 0.072,41.283 -3.0004,51.6537 -4.1969,14.1649 -8.4378,21.6412 -20.2628,35.7234 -4.8904,5.8239 -9.4257,11.9806 -13.6049,18.3333 a 228.54332,211.04225 0 0 0 -41.6703,120.7471 228.54332,211.04225 0 0 0 228.5432,211.0425 228.54332,211.04225 0 0 0 228.5431,-211.0425 228.54332,211.04225 0 0 0 -70.0154,-151.5933 c -0.7984,-1.2406 -1.4672,-2.3162 -2.2954,-3.5956 -21.4055,-33.0656 -27.2734,-48.8837 -23.7846,-64.115 2.1624,-9.4397 0.7378,-9.1907 -9.7493,1.7058 -11.6933,12.1497 -18.2547,24.884 -19.6381,38.1145 l -1.1766,11.2546 -3.3678,-6.9039 c -5.4553,-11.183 -5.8121,-30.3716 -0.9162,-49.3154 10.8062,-41.8143 -0.118,-74.482 -35.4532,-106.0183 -9.2179,-8.227 -17.3617,-14.9578 -18.0976,-14.9578 -0.7359,0 0.2734,3.6245 2.2428,8.0543 7.7009,17.3205 3.7927,31.0307 -9.6867,33.9835 -9.9194,2.1729 -18.7049,-2.5429 -25.2641,-13.5609 -7.5715,-12.7188 -8.0747,-28.5772 -2.0304,-64.0039 2.5419,-14.8988 4.6214,-30.8047 4.6214,-35.3467 0,-8.3103 -3.2323,-21.3592 -7.5582,-30.5102 z" /><g
         style="opacity:1;fill:#ffffff;fill-rule:nonzero;stroke:none;stroke-width:0;stroke-linecap:butt;stroke-linejoin:miter;stroke-miterlimit:10;stroke-dasharray:none;filter:url(#filter160)"
         transform="matrix(2.5213254,0,0,2.5213254,3135.6948,1552.9646)"
         id="g24">
	<path
   d="M 74.979073,32.039432 C 74.620772,31.506272 73.9857,31.240228 73.355992,31.363595 l -19.643256,3.784688 3.988511,-38.4873067 c 0.07617,-0.7316204 -0.356155,-1.4160394 -1.050229,-1.6627735 -0.695146,-0.2456614 -1.461095,0.0118 -1.864452,0.6275629 l -37.2944,56.9376553 c -0.351864,0.536379 -0.348646,1.227234 0.0086,1.758249 0.35401,0.528869 0.989082,0.795986 1.623081,0.677983 l 19.644328,-3.78576 -3.988511,38.486233 c -0.07616,0.733766 0.356156,1.418185 1.05023,1.663847 0.17055,0.06007 0.349701,0.09118 0.532069,0.09118 0.538524,0 1.035211,-0.269262 1.331292,-0.718747 l 37.2944,-56.937656 c 0.351865,-0.536378 0.347574,-1.227234 -0.0086,-1.759322 z"
   style="opacity:1;fill:#ffffff;fill-rule:nonzero;stroke:none;stroke-width:1.07276;stroke-linecap:butt;stroke-linejoin:miter;stroke-miterlimit:10;stroke-dasharray:none"
   stroke-linecap="round"
   id="path24" />
</g></g></g></svg>
